# xmcd CD database file
#
# Track frame offsets:
#	150
#	18507
#	35980
#	52667
#	74537
#	95002
#	112927
#	132055
#	145442
#	158897
#	173710
#	191597
#
# Disc length: 2731 seconds
#
# Revision: 0
# Processed by: cddbd v1.5.1PL0 Copyright (c) Steve Scherf et al.
# Submitted via: CDex 1.51
#
DISCID=a60aa90c
DTITLE=神谷千尋 - 美童しまうた
DYEAR=2003
DGENRE=Rock
TTITLE0=さがり花
TTITLE1=美童しまうた
TTITLE2=わらび時分
TTITLE3=空よ海よ花よ太陽よ
TTITLE4=遠い記憶の島の唄
TTITLE5=なんでいいサー
TTITLE6=夏夜〜NACHIYU〜
TTITLE7=里ゆらり
TTITLE8=風さやや
TTITLE9=ウムイウタ
TTITLE10=願い
TTITLE11=島想てぃ・・・
EXTD=YEAR: 2003
EXTT0=
EXTT1=
EXTT2=
EXTT3=
EXTT4=
EXTT5=
EXTT6=
EXTT7=
EXTT8=
EXTT9=
EXTT10=
EXTT11=
PLAYORDER=
